<svg width="152" height="40" viewBox="0 0 152 40" fill="none" xmlns="http://www.w3.org/2000/svg">
<path d="M35.5136 35.6H24.1865V33.4333H33.3482V25.0667H35.5136V35.6Z" fill="#11C7F2"/>
<path d="M35.5136 13.9666H33.3482V6.2833H24.1865V4.1333H35.5136V13.9666Z" fill="#11C7F2"/>
<path d="M6.21327 15.3H4.06445V4.1333H15.3916V6.2833H6.21327V15.3Z" fill="#11C7F2"/>
<path d="M15.3916 35.5999H4.06445V24.3999H6.21327V33.4332H15.3916V35.5999Z" fill="#11C7F2"/>
<path d="M19.7889 40C16.7573 40 14.3086 37.55 14.3086 34.5167C14.3086 31.4833 16.7573 29.0333 19.7889 29.0333C22.8206 29.0333 25.2692 31.4833 25.2692 34.5167C25.2526 37.55 22.8039 40 19.7889 40ZM19.7889 31.2C17.9566 31.2 16.4741 32.6833 16.4741 34.5167C16.4741 36.35 17.9566 37.8333 19.7889 37.8333C21.6213 37.8333 23.1038 36.35 23.1038 34.5167C23.1038 32.6833 21.6213 31.2 19.7889 31.2Z" fill="#11C7F2"/>
<path d="M10.361 24.95H0V14.5834H10.361V24.95ZM2.16548 22.8H8.19551V16.75H2.16548V22.8Z" fill="#11C7F2"/>
<path d="M34.5481 27.1L27.2188 19.7833L34.5481 12.45L41.8607 19.7833L34.5481 27.1ZM30.2837 19.7666L34.5481 24.0333L38.8124 19.7666L34.5481 15.5L30.2837 19.7666Z" fill="#11C7F2"/>
<path d="M22.8379 10.4167H16.8245L13.8262 5.2L16.8412 0H22.8546L25.8529 5.2L22.8379 10.4167ZM18.0738 8.26667H21.5886L23.3543 5.21667L21.6052 2.16667H18.0905L16.3248 5.2L18.0738 8.26667Z" fill="#11C7F2"/>
<path d="M26.1694 25.6667H24.337C24.0039 25.6667 23.7207 25.3833 23.7207 25.05C23.7207 24.7167 24.0039 24.4333 24.337 24.4333H26.1694C26.5025 24.4333 26.7857 24.7167 26.7857 25.05C26.7857 25.3833 26.5192 25.6667 26.1694 25.6667Z" fill="#11C7F2"/>
<path d="M15.3417 15.2499H13.0763C12.7431 15.2499 12.46 14.9666 12.46 14.6333C12.46 14.2999 12.7431 14.0166 13.0763 14.0166H15.3417C15.6749 14.0166 15.958 14.2999 15.958 14.6333C15.958 14.9666 15.6749 15.2499 15.3417 15.2499Z" fill="#11C7F2"/>
<path d="M26.1693 15.2499H18.257C17.9238 15.2499 17.6406 14.9666 17.6406 14.6333C17.6406 14.2999 17.9238 14.0166 18.257 14.0166H26.1693C26.5024 14.0166 26.7856 14.2999 26.7856 14.6333C26.7856 14.9666 26.5191 15.2499 26.1693 15.2499Z" fill="#11C7F2"/>
<path d="M26.1694 18.9333H21.1222C20.789 18.9333 20.5059 18.65 20.5059 18.3166C20.5059 17.9833 20.789 17.7 21.1222 17.7H26.1861C26.5192 17.7 26.8024 17.9833 26.8024 18.3166C26.8024 18.65 26.5192 18.9333 26.1694 18.9333Z" fill="#11C7F2"/>
<path d="M18.0569 18.9333H13.0763C12.7431 18.9333 12.46 18.65 12.46 18.3166C12.46 17.9833 12.7431 17.7 13.0763 17.7H18.0569C18.39 17.7 18.6732 17.9833 18.6732 18.3166C18.6732 18.65 18.4067 18.9333 18.0569 18.9333Z" fill="#11C7F2"/>
<path d="M22.1044 22.3H17.7734C17.4403 22.3167 17.1404 22.05 17.1238 21.7167C17.1071 21.3833 17.3737 21.0833 17.7068 21.0667C17.7235 21.0667 17.7568 21.0667 17.7734 21.0667H22.1044C22.4375 21.05 22.7374 21.3167 22.754 21.65C22.7707 21.9833 22.5042 22.2833 22.171 22.3C22.1544 22.3 22.121 22.3 22.1044 22.3Z" fill="#11C7F2"/>
<path d="M18.3734 25.6667H13.0763C12.7431 25.6667 12.46 25.3833 12.46 25.05C12.46 24.7167 12.7431 24.4333 13.0763 24.4333H18.3734C18.7065 24.4333 18.9897 24.7167 18.9897 25.05C18.9897 25.3833 18.7232 25.6667 18.3734 25.6667Z" fill="#11C7F2"/>
<path d="M21.9218 25.6667H21.1056C20.7724 25.6667 20.4893 25.3833 20.4893 25.05C20.4893 24.7167 20.7724 24.4333 21.1056 24.4333H21.9218C22.255 24.4333 22.5381 24.7167 22.5381 25.05C22.5381 25.3833 22.255 25.6667 21.9218 25.6667Z" fill="#11C7F2"/>
<path d="M15.1417 22.3H13.0762C12.743 22.3167 12.4432 22.05 12.4265 21.7167C12.4099 21.3833 12.6764 21.0833 13.0095 21.0667C13.0262 21.0667 13.0595 21.0667 13.0762 21.0667H15.1417C15.4749 21.05 15.7747 21.3167 15.7913 21.65C15.808 21.9833 15.5415 22.2833 15.2083 22.3C15.175 22.3 15.1584 22.3 15.1417 22.3Z" fill="#11C7F2"/>
<path d="M26.1686 22.3H24.8027C24.4696 22.3167 24.1697 22.05 24.1531 21.7167C24.1364 21.3833 24.4029 21.0833 24.7361 21.0667C24.7528 21.0667 24.7861 21.0667 24.8027 21.0667H26.1686C26.5018 21.05 26.8016 21.3167 26.8183 21.65C26.8349 21.9833 26.5684 22.2833 26.2353 22.3C26.2186 22.3 26.202 22.3 26.1686 22.3Z" fill="#11C7F2"/>
<path d="M63.0322 7.34989H57.9183V19.0499H54.2204V7.34989H49.0898V3.96655H63.0322V7.34989Z" fill="black"/>
<path d="M63.582 3.96655H75.5088V7.24989H67.2967V10.0832H75.209V12.8999H67.2967V15.7499H75.4922V19.0332H63.582V3.96655Z" fill="black"/>
<path d="M76.4082 11.5167C76.4082 6.75006 79.5232 3.4834 84.054 3.4834C87.2189 3.4834 90.4338 4.9834 91.0335 9.65007H87.5021C86.9691 7.80007 85.7031 6.9834 84.054 6.9834C81.8219 6.9834 80.1062 8.8334 80.1062 11.5167C80.1062 14.2001 81.8219 16.0501 84.054 16.0501C85.7031 16.0501 86.9691 15.2001 87.5021 13.3334H91.0335C90.4172 18.0167 87.2356 19.5501 84.054 19.5501C79.5065 19.5501 76.4082 16.2667 76.4082 11.5167Z" fill="black"/>
<path d="M106.125 3.96655V19.0332H102.411V13.1999H96.0476V19.0499H92.333V3.96655H96.0476V9.81655H102.411V3.96655H106.125Z" fill="black"/>
<path d="M59.801 33.3667H53.2879L52.5217 35.7167H48.6904L53.9542 20.65H59.1514L64.4151 35.7167H60.5839L59.801 33.3667ZM58.8182 30.3334L56.8859 24.45H56.2196L54.2707 30.3334H58.8182Z" fill="black"/>
<path d="M63.5322 28.1834C63.5322 23.4167 66.6472 20.15 71.178 20.15C74.343 20.15 77.5579 21.65 78.1575 26.3167H74.6095C74.0764 24.4667 72.8105 23.65 71.1614 23.65C68.9293 23.65 67.2135 25.5 67.2135 28.1834C67.2135 30.8667 68.9293 32.7167 71.1614 32.7167C72.8105 32.7167 74.0764 31.8667 74.6095 30H78.1575C77.5412 34.6834 74.3596 36.2167 71.178 36.2167C66.6472 36.2167 63.5322 32.9334 63.5322 28.1834Z" fill="black"/>
<path d="M88.3186 33.3667H81.8055L81.0392 35.7167H77.208L82.4718 20.65H87.6689L92.9327 35.7167H89.1015L88.3186 33.3667ZM87.3358 30.3334L85.4035 24.45H84.7206L82.7883 30.3334H87.3358Z" fill="black"/>
<path d="M106.791 28.1833C106.791 32.4666 104.776 35.7166 99.312 35.7166H92.7656V20.65H99.312C104.792 20.6333 106.791 23.8666 106.791 28.1833ZM103.077 28.1833C103.077 25.4333 101.711 24.0333 99.3287 24.0333H96.5136L96.4969 32.3H99.3287C101.711 32.3 103.077 30.9 103.077 28.1833Z" fill="black"/>
<path d="M108.357 20.6333H120.284V23.9166H112.089V26.75H120.001V29.5666H112.089V32.4166H120.284V35.7H108.357V20.6333Z" fill="black"/>
<path d="M121.351 20.6333H126.081L129.113 30.5333H129.396L132.428 20.6333H137.159V35.7H133.611V27.4333H133.294L130.695 35.7H127.847L125.248 27.4333H124.932V35.7H121.367V20.6333H121.351Z" fill="black"/>
<path d="M146.303 30.9334V35.7H142.588V30.9L136.892 20.6167H140.823L144.271 27H144.621L148.085 20.6167H152L146.303 30.9334Z" fill="black"/>
</svg>
